# xmcd CD database file
#
# Track frame offsets:
#	150
#	9619
#	22070
#	34505
#	47762
#	63929
#	79788
#	96660
#	108449
#	123721
#
# Disc length: 1819 seconds
#
# Revision: 2
# Processed by: cddbd v1.5.2PL0 Copyright (c) Steve Scherf et al.
# Submitted via: CDex 1.70beta2
#
DISCID=8307190a
DTITLE=BoC - Best Of Country - D3
DYEAR=1900
DGENRE=Country
TTITLE0=Donna Fargo-When Will I Be Loved
TTITLE1=Lynn Anderson-Stand By Your Man
TTITLE2=Skeeter Davis-The End of The World
TTITLE3=Stu Phillps-Please Help Me I'm Falling
TTITLE4=Liz Anderson-The Devil Went Down to Georgia
TTITLE5=Lynn Anderson-You Needed Me
TTITLE6=Roy Drusky-Blue Skies
TTITLE7=Stu Phillips-Hello Darlin'
TTITLE8=Faron Young-He Stopped Loving Her Today
TTITLE9=Jack Greene-I Can't Stop Loving You
EXTD=YEAR: 1900
EXTT0=
EXTT1=
EXTT2=
EXTT3=
EXTT4=
EXTT5=
EXTT6=
EXTT7=
EXTT8=
EXTT9=
PLAYORDER=
